<svg width="32" height="32" viewBox="0 0 32 32" fill="none" xmlns="http://www.w3.org/2000/svg">
<path d="M13.3335 17.3333C13.9061 18.0988 14.6366 18.7322 15.4756 19.1906C16.3145 19.6489 17.2422 19.9215 18.1957 19.9898C19.1492 20.0581 20.1063 19.9205 21.002 19.5864C21.8976 19.2523 22.711 18.7294 23.3868 18.0533L27.3868 14.0533C28.6012 12.796 29.2732 11.112 29.258 9.36399C29.2428 7.61601 28.5417 5.94392 27.3056 4.70787C26.0696 3.47182 24.3975 2.77069 22.6495 2.7555C20.9015 2.74031 19.2175 3.41227 17.9602 4.62666L15.6668 6.90666" stroke="#4D4C4D" stroke-width="3" stroke-linecap="round" stroke-linejoin="round"/>
<path d="M18.6664 14.6666C18.0938 13.9011 17.3633 13.2677 16.5244 12.8094C15.6855 12.351 14.7578 12.0785 13.8042 12.0102C12.8507 11.9419 11.8937 12.0795 10.998 12.4136C10.1023 12.7477 9.28896 13.2705 8.61311 13.9466L4.61311 17.9466C3.39872 19.204 2.72676 20.888 2.74195 22.636C2.75714 24.384 3.45827 26.056 4.69432 27.2921C5.93037 28.5282 7.60246 29.2293 9.35044 29.2445C11.0984 29.2597 12.7824 28.5877 14.0398 27.3733L16.3198 25.0933" stroke="#4D4C4D" stroke-width="3" stroke-linecap="round" stroke-linejoin="round"/>
</svg>
